<svg width="24" height="24" viewBox="0 0 24 24" fill="none" xmlns="http://www.w3.org/2000/svg">
<g clip-path="url(#clip0_13_2570)">
<g clip-path="url(#clip1_13_2570)">
<g clip-path="url(#clip2_13_2570)">
<mask id="mask0_13_2570" style="mask-type:luminance" maskUnits="userSpaceOnUse" x="0" y="0" width="24" height="24">
<path d="M24 24H0V0H24V24Z" fill="white"/>
</mask>
<g mask="url(#mask0_13_2570)">
<path d="M24 12C24 5.3725 18.6274 0 12 0C9.95186 0 8.02358 0.513102 6.33666 1.4178C4.94795 2.1625 4.22922 3.1726 3.23548 4.3803C2.29755 5.5201 1.05944 6.836 0.590729 8.2708C0.207341 9.4446 0 10.6981 0 12C0 14.2155 0.600377 16.2907 1.64734 18.0719C3.73224 21.619 7.58805 23.119 12 23.119C13.32 23.119 14.5903 23.7868 15.7783 23.3931C20.5545 21.81 24 17.3073 24 12Z" fill="url(#paint0_linear_13_2570)"/>
<path d="M14.6707 22.3102C13.4628 22.7188 12.1688 22.9404 10.823 22.9404C8.02312 22.9404 5.68571 21.743 3.64425 20.1356C3.01164 19.4864 2.21366 19.0042 1.74016 18.2256C1.26665 17.4469 0.879309 16.61 0.591309 15.7281C0.642462 15.6661 0.700015 15.608 0.765379 15.5564C1.0666 15.3186 1.46674 15.2469 1.83178 15.3654L5.09639 16.4254C5.49173 16.5537 5.92562 16.4495 6.2195 16.1556L7.00373 15.3713C7.32129 15.0538 7.41517 14.5757 7.24133 14.1616C6.99084 13.565 7.30406 12.8817 7.91959 12.6821L8.86312 12.3761C9.00538 12.3299 9.12994 12.2409 9.21969 12.1213C9.45672 11.8052 9.39729 11.3576 9.08595 11.1143L8.70449 10.8163C8.34863 10.5383 8.14063 10.1118 8.14063 9.6602V9.3233C8.14063 8.7448 8.42538 8.2035 8.90204 7.8758L9.55658 7.4258C9.61602 7.3849 9.6826 7.3556 9.75291 7.3394L10.1391 7.2503C10.9536 7.0623 11.5776 6.4068 11.7253 5.584C11.7819 5.2689 11.7653 4.9451 11.6768 4.6375L11.034 2.4032C10.9284 2.036 11.2041 1.6698 11.5862 1.6698C11.7309 1.6698 11.8703 1.7244 11.9765 1.8226L14.4388 4.1012C14.7859 4.4223 15.0677 4.8073 15.269 5.2351L15.8188 6.4033C16.0006 6.7897 16.1138 7.2049 16.1533 7.6301L16.3671 9.9345C16.4603 10.9388 16.0223 11.9188 15.2119 12.5193C14.7148 12.8876 14.1126 13.0865 13.494 13.0865H13.0535C12.3978 13.0865 11.8449 13.5751 11.7643 14.2258C11.7062 14.6956 11.9082 15.1599 12.2916 15.4375L12.7786 15.7901C12.9469 15.912 13.1421 15.9917 13.3477 16.0226L14.5422 16.2018C15.3718 16.3262 16.096 16.83 16.5012 17.5645C17.0257 18.5151 17.0523 19.662 16.5727 20.6359C16.1848 21.4234 15.5022 22.0289 14.6707 22.3102Z" fill="url(#paint1_linear_13_2570)"/>
<path d="M12 24C11.6831 24 11.3691 23.9875 11.0583 23.9634C17.2456 23.4831 22.1167 18.3105 22.1167 12C22.1167 5.6895 17.2456 0.516901 11.0583 0.0366001C11.3691 0.0125008 11.6831 0 12 0C15.4577 0 18.5738 1.4624 20.7636 3.8024C20.7636 3.8024 23.9059 8.8303 23.9059 12C23.9059 14.3129 22.2119 18.3053 22.2119 18.3053C20.0971 21.7231 16.3144 24 12 24Z" fill="url(#paint2_linear_13_2570)"/>
<path d="M17.7494 21.6955C17.3616 22.483 16.679 23.0885 15.8475 23.3698C14.6396 23.7784 13.3456 24 11.9998 24C7.60087 24 3.75484 21.633 1.66571 18.1031C1.37273 17.6081 1.49075 16.9725 1.94223 16.616C2.24346 16.3782 2.6436 16.3065 3.00863 16.425L6.27324 17.4849C6.66858 17.6133 7.10247 17.5091 7.39635 17.2151L8.18059 16.4309C8.49814 16.1134 8.59202 15.6353 8.41819 15.2212C8.16769 14.6246 8.48091 13.9413 9.09644 13.7416L10.04 13.4356C10.1822 13.3895 10.3068 13.3005 10.3965 13.1808C10.6336 12.8648 10.5741 12.4171 10.2628 12.1739L9.88134 11.8759C9.52548 11.5978 9.31748 11.1713 9.31748 10.7197V10.3828C9.31748 9.8044 9.60223 9.263 10.0789 8.9353L10.7334 8.4853C10.7929 8.4445 10.8595 8.4152 10.9298 8.3989L11.3159 8.3098C12.1305 8.1218 12.7545 7.4663 12.9022 6.6435C12.9587 6.3285 12.9421 6.0047 12.8536 5.697L12.2109 3.4627C12.1052 3.0954 12.3809 2.7293 12.7631 2.7293C12.9078 2.7293 13.0471 2.7839 13.1533 2.8822L15.6157 5.1608C15.9627 5.4819 16.2445 5.8668 16.4459 6.2946L16.9956 7.4629C17.1775 7.8493 17.2907 8.2644 17.3301 8.6896L17.5439 10.994C17.6371 11.9983 17.1991 12.9784 16.3887 13.5789C15.8917 13.9472 15.2895 14.146 14.6709 14.146H14.2303C13.5746 14.146 13.0218 14.6346 12.9412 15.2854C12.883 15.7552 13.0851 16.2194 13.4685 16.497L13.9554 16.8496C14.1238 16.9715 14.319 17.0512 14.5246 17.0821L15.7191 17.2613C16.5486 17.3857 17.2729 17.8895 17.6781 18.624C18.2025 19.5747 18.2291 20.7216 17.7494 21.6955Z" fill="url(#paint3_linear_13_2570)"/>
<path d="M4.86683 6.14821C4.05079 6.55341 3.40843 7.23951 3.05789 8.08051L2.67704 8.99411C2.52137 9.36761 2.17403 9.62611 1.77163 9.66811C0.973044 9.75141 0.355161 8.98231 0.607867 8.22021C1.5817 5.28361 3.65921 2.85061 6.34881 1.41211L6.52279 3.15441C6.64707 4.39961 5.98768 5.59181 4.86683 6.14821Z" fill="url(#paint4_linear_13_2570)"/>
<path d="M22.2113 18.3049L22.1361 18.164C21.503 16.9769 21.6769 15.5209 22.5719 14.5164C23.0977 13.9262 23.3883 13.1633 23.3883 12.3728C23.3883 11.4477 22.9907 10.5672 22.2966 9.9555L21.358 9.1281C20.748 8.5904 20.3985 7.8165 20.3985 7.0034V6.7578C20.3985 6.2763 20.2757 5.8027 20.0418 5.3818L19.6237 4.6296C19.5183 4.44 19.5055 4.2127 19.589 4.0125C19.7875 3.5363 20.4106 3.4263 20.7631 3.803C22.7706 5.948 24 8.8303 24 12C24 14.313 23.345 16.4727 22.2113 18.3049Z" fill="url(#paint5_linear_13_2570)"/>
<path d="M22.2113 18.3049L22.1362 18.164C21.503 16.9769 21.677 15.5209 22.5719 14.5164C23.0978 13.9262 23.3883 13.1633 23.3883 12.3728C23.3883 11.4477 22.9907 10.5672 22.2967 9.9555L21.872 9.5812C21.5113 7.819 20.7645 6.1977 19.7236 4.8093L19.6237 4.6296C19.5183 4.44 19.5055 4.2127 19.589 4.0125C19.7875 3.5363 20.4106 3.4263 20.7631 3.803C22.7707 5.948 24.0001 8.8303 24.0001 12C24.0001 14.313 23.3451 16.4727 22.2113 18.3049Z" fill="url(#paint6_linear_13_2570)"/>
<path d="M13.4686 16.4971L13.9555 16.8497C14.1239 16.9716 14.3191 17.0513 14.5247 17.0822L15.7192 17.2614C16.5487 17.3858 17.273 17.8896 17.6782 18.6241C18.2027 19.5747 18.2293 20.7216 17.7496 21.6955C17.3618 22.483 16.6792 23.0885 15.8476 23.3698C14.6398 23.7784 13.3458 24 12 24C11.6829 24 11.3688 23.9873 11.0579 23.9632C12.0668 23.8848 13.0408 23.6822 13.9643 23.3698C14.7958 23.0885 15.4784 22.483 15.8663 21.6955C16.346 20.7216 16.3193 19.5747 15.7948 18.6241C15.3896 17.8896 14.6654 17.3858 13.8358 17.2614L12.6413 17.0822C12.4357 17.0514 12.2405 16.9716 12.0722 16.8497L11.5852 16.4971C11.2019 16.2195 10.9998 15.7553 11.0579 15.2855C11.1385 14.6347 11.6914 14.1461 12.3471 14.1461H12.7876C13.4062 14.1461 14.0085 13.9472 14.5055 13.579C15.3158 12.9785 15.7539 11.9984 15.6607 10.9941L15.4469 8.6897C15.4075 8.2645 15.2942 7.8494 15.1124 7.463L14.5626 6.2947C14.3613 5.867 14.0795 5.482 13.7324 5.1608L12.3247 3.8582L12.2109 3.4629C12.1053 3.0956 12.381 2.7295 12.7631 2.7295C12.9078 2.7295 13.0472 2.784 13.1534 2.8823L15.6157 5.1609C15.9627 5.482 16.2446 5.867 16.4459 6.2948L16.9957 7.4631C17.1775 7.8495 17.2907 8.2646 17.3302 8.6898L17.544 10.9942C17.6371 11.9984 17.1992 12.9785 16.3888 13.579C15.8917 13.9473 15.2895 14.1461 14.6709 14.1461H14.2304C13.5747 14.1461 13.0218 14.6348 12.9412 15.2855C12.8831 15.7553 13.0851 16.2195 13.4686 16.4971Z" fill="url(#paint7_linear_13_2570)"/>
<path d="M4.86703 6.14831C4.05099 6.55341 3.40863 7.23961 3.05809 8.08051L2.67724 8.99421C2.52157 9.36761 2.17423 9.62611 1.77183 9.66811C1.50953 9.69551 1.26699 9.63041 1.06812 9.50431C1.25804 9.38491 1.41089 9.20861 1.50026 8.99421L1.8811 8.08051C2.23164 7.23961 2.874 6.55341 3.69004 6.14831C4.81089 5.59181 5.47028 4.39971 5.34595 3.15441L5.23932 2.08621C5.59601 1.84251 5.96604 1.61691 6.34901 1.41211L6.52299 3.15441C6.64727 4.39961 5.98788 5.59181 4.86703 6.14831Z" fill="url(#paint8_linear_13_2570)"/>
</g>
</g>
</g>
</g>
<defs>
<linearGradient id="paint0_linear_13_2570" x1="-0.388706" y1="11.7587" x2="29.0454" y2="11.7587" gradientUnits="userSpaceOnUse">
<stop stop-color="#60B7FF"/>
<stop offset="0.5857" stop-color="#0182FC"/>
<stop offset="1" stop-color="#2740B0"/>
</linearGradient>
<linearGradient id="paint1_linear_13_2570" x1="-5.74116" y1="12.3051" x2="25.7562" y2="12.3051" gradientUnits="userSpaceOnUse">
<stop stop-color="#60B7FF"/>
<stop offset="0.5857" stop-color="#0182FC"/>
<stop offset="1" stop-color="#2740B0"/>
</linearGradient>
<linearGradient id="paint2_linear_13_2570" x1="-1.69484" y1="12" x2="24.3125" y2="12" gradientUnits="userSpaceOnUse">
<stop stop-color="#60B7FF"/>
<stop offset="0.5857" stop-color="#0182FC"/>
<stop offset="1" stop-color="#2740B0"/>
</linearGradient>
<linearGradient id="paint3_linear_13_2570" x1="0.329243" y1="13.3647" x2="24.9917" y2="13.3647" gradientUnits="userSpaceOnUse">
<stop stop-color="#A2E62E"/>
<stop offset="0.5857" stop-color="#81B823"/>
<stop offset="1" stop-color="#037E73"/>
</linearGradient>
<linearGradient id="paint4_linear_13_2570" x1="0.329326" y1="5.54321" x2="24.9918" y2="5.54321" gradientUnits="userSpaceOnUse">
<stop stop-color="#A2E62E"/>
<stop offset="0.5857" stop-color="#81B823"/>
<stop offset="1" stop-color="#037E73"/>
</linearGradient>
<linearGradient id="paint5_linear_13_2570" x1="0.329471" y1="10.9409" x2="24.9919" y2="10.9409" gradientUnits="userSpaceOnUse">
<stop stop-color="#A2E62E"/>
<stop offset="0.5857" stop-color="#81B823"/>
<stop offset="1" stop-color="#037E73"/>
</linearGradient>
<linearGradient id="paint6_linear_13_2570" x1="8.28246" y1="10.9409" x2="19.0439" y2="10.9409" gradientUnits="userSpaceOnUse">
<stop stop-color="#A2E62E"/>
<stop offset="0.5857" stop-color="#81B823"/>
<stop offset="1" stop-color="#037E73"/>
</linearGradient>
<linearGradient id="paint7_linear_13_2570" x1="-0.370404" y1="13.3647" x2="21.8661" y2="13.3647" gradientUnits="userSpaceOnUse">
<stop stop-color="#A2E62E"/>
<stop offset="0.5857" stop-color="#81B823"/>
<stop offset="1" stop-color="#037E73"/>
</linearGradient>
<linearGradient id="paint8_linear_13_2570" x1="-1.8525" y1="5.54321" x2="14.4623" y2="5.54321" gradientUnits="userSpaceOnUse">
<stop stop-color="#A2E62E"/>
<stop offset="0.5857" stop-color="#81B823"/>
<stop offset="1" stop-color="#037E73"/>
</linearGradient>
<clipPath id="clip0_13_2570">
<rect width="24" height="24" fill="white" transform="matrix(1 0 0 -1 0 24)"/>
</clipPath>
<clipPath id="clip1_13_2570">
<rect width="24" height="24" fill="white" transform="matrix(1 0 0 -1 0 24)"/>
</clipPath>
<clipPath id="clip2_13_2570">
<rect width="24" height="24" fill="white" transform="matrix(1 0 0 -1 0 24)"/>
</clipPath>
</defs>
</svg>
