<svg width="20" height="20" viewBox="0 0 20 20" fill="none" xmlns="http://www.w3.org/2000/svg">
<path d="M8.25 14.4375H11V19.25H8.25V14.4375Z" fill="white"/>
<path d="M18.5625 17.875H17.1875V4.125C17.1875 3.7125 16.9125 3.4375 16.5 3.4375H15.8125V0.6875C15.8125 0.275 15.5375 0 15.125 0H4.125C3.7125 0 3.4375 0.275 3.4375 0.6875V3.4375H2.75C2.3375 3.4375 2.0625 3.7125 2.0625 4.125V17.875H0.6875C0.275 17.875 0 18.15 0 18.5625C0 18.975 0.275 19.25 0.6875 19.25H6.875V13.75C6.875 13.3375 7.15 13.0625 7.5625 13.0625H11.6875C12.1 13.0625 12.375 13.3375 12.375 13.75V19.25H18.5625C18.975 19.25 19.25 18.975 19.25 18.5625C19.25 18.15 18.975 17.875 18.5625 17.875ZM13.75 5.5C14.1625 5.5 14.4375 5.775 14.4375 6.1875V7.5625C14.4375 7.975 14.1625 8.25 13.75 8.25C13.3375 8.25 13.0625 7.975 13.0625 7.5625V6.1875C13.0625 5.775 13.3375 5.5 13.75 5.5ZM5.5 15.8125C5.5 16.225 5.225 16.5 4.8125 16.5C4.4 16.5 4.125 16.225 4.125 15.8125V14.4375C4.125 14.025 4.4 13.75 4.8125 13.75C5.225 13.75 5.5 14.025 5.5 14.4375V15.8125ZM6.1875 11.6875C6.1875 12.1 5.9125 12.375 5.5 12.375C5.0875 12.375 4.8125 12.1 4.8125 11.6875V10.3125C4.8125 9.9 5.0875 9.625 5.5 9.625C5.9125 9.625 6.1875 9.9 6.1875 10.3125V11.6875ZM6.1875 7.5625C6.1875 7.975 5.9125 8.25 5.5 8.25C5.0875 8.25 4.8125 7.975 4.8125 7.5625V6.1875C4.8125 5.775 5.0875 5.5 5.5 5.5C5.9125 5.5 6.1875 5.775 6.1875 6.1875V7.5625ZM6.875 4.8125C6.4625 4.8125 6.1875 4.5375 6.1875 4.125V2.75C6.1875 2.3375 6.4625 2.0625 6.875 2.0625C7.2875 2.0625 7.5625 2.3375 7.5625 2.75V4.125C7.5625 4.5375 7.2875 4.8125 6.875 4.8125ZM8.9375 11.6875C8.9375 12.1 8.6625 12.375 8.25 12.375C7.8375 12.375 7.5625 12.1 7.5625 11.6875V10.3125C7.5625 9.9 7.8375 9.625 8.25 9.625C8.6625 9.625 8.9375 9.9 8.9375 10.3125V11.6875ZM8.9375 7.5625C8.9375 7.975 8.6625 8.25 8.25 8.25C7.8375 8.25 7.5625 7.975 7.5625 7.5625V6.1875C7.5625 5.775 7.8375 5.5 8.25 5.5C8.6625 5.5 8.9375 5.775 8.9375 6.1875V7.5625ZM9.625 4.8125C9.2125 4.8125 8.9375 4.5375 8.9375 4.125V2.75C8.9375 2.3375 9.2125 2.0625 9.625 2.0625C10.0375 2.0625 10.3125 2.3375 10.3125 2.75V4.125C10.3125 4.5375 10.0375 4.8125 9.625 4.8125ZM11.6875 11.6875C11.6875 12.1 11.4125 12.375 11 12.375C10.5875 12.375 10.3125 12.1 10.3125 11.6875V10.3125C10.3125 9.9 10.5875 9.625 11 9.625C11.4125 9.625 11.6875 9.9 11.6875 10.3125V11.6875ZM11.6875 7.5625C11.6875 7.975 11.4125 8.25 11 8.25C10.5875 8.25 10.3125 7.975 10.3125 7.5625V6.1875C10.3125 5.775 10.5875 5.5 11 5.5C11.4125 5.5 11.6875 5.775 11.6875 6.1875V7.5625ZM12.375 4.8125C11.9625 4.8125 11.6875 4.5375 11.6875 4.125V2.75C11.6875 2.3375 11.9625 2.0625 12.375 2.0625C12.7875 2.0625 13.0625 2.3375 13.0625 2.75V4.125C13.0625 4.5375 12.7875 4.8125 12.375 4.8125ZM13.0625 11.6875V10.3125C13.0625 9.9 13.3375 9.625 13.75 9.625C14.1625 9.625 14.4375 9.9 14.4375 10.3125V11.6875C14.4375 12.1 14.1625 12.375 13.75 12.375C13.3375 12.375 13.0625 12.1 13.0625 11.6875ZM15.125 15.8125C15.125 16.225 14.85 16.5 14.4375 16.5C14.025 16.5 13.75 16.225 13.75 15.8125V14.4375C13.75 14.025 14.025 13.75 14.4375 13.75C14.85 13.75 15.125 14.025 15.125 14.4375V15.8125Z" fill="#009AC5"/>
</svg>
