<svg width="18" height="18" viewBox="0 0 18 18" fill="none" xmlns="http://www.w3.org/2000/svg">
<g clip-path="url(#clip0_13_2407)">
<path d="M3.30137 3.08392C2.95307 3.08392 2.66971 3.36729 2.66971 3.71562C2.66971 4.06391 2.95307 4.34727 3.30137 4.34727C3.6497 4.34727 3.93306 4.06391 3.93306 3.71562C3.93306 3.36729 3.6497 3.08392 3.30137 3.08392Z" fill="black"/>
<path d="M12.964 16.8349C13.2546 16.1338 12.922 15.3298 12.2209 15.0392C11.5199 14.7485 10.7159 15.0812 10.4252 15.7822C10.1346 16.4833 10.4672 17.2873 11.1683 17.5779C11.8693 17.8686 12.6733 17.5359 12.964 16.8349Z" fill="black"/>
<path d="M9.22953 16.3048C9.22953 16.1631 9.24224 16.0244 9.26535 15.8892H2.14262C1.56406 15.8892 1.09335 15.4185 1.09335 14.8399C1.09335 14.2613 1.56406 13.7906 2.14262 13.7906H7.05281C8.16923 13.7906 9.07754 12.8823 9.07754 11.7659C9.07754 10.6495 8.16926 9.74122 7.05281 9.74122H4.89056L4.24141 10.8265H7.05281C7.57083 10.8265 7.99224 11.2479 7.99224 11.7659C7.99224 12.2839 7.57079 12.7053 7.05281 12.7053H2.14262C0.965624 12.7053 0.00804189 13.6629 0.00804189 14.8399C0.00804189 16.0169 0.965624 16.9745 2.14262 16.9745H9.32298C9.26102 16.7567 9.22958 16.5313 9.22953 16.3048ZM17.9996 8.79343C17.9954 8.68877 17.961 8.58757 17.9005 8.50203C17.8401 8.41649 17.7562 8.35027 17.6589 8.31137L11.8908 6.00412C11.8085 5.97121 11.7193 5.95897 11.6312 5.96847C11.543 5.97798 11.4585 6.00894 11.3851 6.05865C11.3117 6.10837 11.2515 6.17531 11.21 6.25364C11.1684 6.33196 11.1466 6.41928 11.1466 6.50795V13.9064C11.3246 13.8659 11.5065 13.8455 11.6889 13.8454C11.8716 13.8455 12.0537 13.866 12.2319 13.9065V12.0147L17.6986 9.30123C17.7924 9.25467 17.8708 9.18195 17.9242 9.09184C17.9776 9.00173 18.0038 8.89809 17.9996 8.79343ZM6.65503 3.64862C6.65503 1.81089 5.16525 0.321106 3.32752 0.321106C1.48979 0.321106 0 1.81089 0 3.64862V3.66242C0 4.32667 0.177729 4.9788 0.514751 5.55121L3.04693 9.8518C3.16155 10.0465 3.44277 10.0474 3.55873 9.85356L6.12715 5.55947C6.4726 4.98195 6.65503 4.32158 6.65503 3.64862ZM3.30135 5.43255C2.35462 5.43255 1.58439 4.66232 1.58439 3.71559C1.58439 2.76886 2.35462 1.99863 3.30135 1.99863C4.24809 1.99863 5.01832 2.76886 5.01832 3.71559C5.01832 4.66236 4.24809 5.43255 3.30135 5.43255Z" fill="black"/>
</g>
<defs>
<clipPath id="clip0_13_2407">
<rect width="18" height="18" fill="white"/>
</clipPath>
</defs>
</svg>
